<?xml version="1.0" encoding="UTF-8" standalone="no"?><!DOCTYPE svg PUBLIC "-//W3C//DTD SVG 1.1//EN" "http://www.w3.org/Graphics/SVG/1.1/DTD/svg11.dtd"><svg width="100%" height="100%" viewBox="0 0 1845 923" version="1.1" xmlns="http://www.w3.org/2000/svg" xmlns:xlink="http://www.w3.org/1999/xlink" xml:space="preserve" xmlns:serif="http://www.serif.com/" style="fill-rule:evenodd;clip-rule:evenodd;stroke-linejoin:round;stroke-miterlimit:2;"><path d="M1393.65,0c-14.308,0.275 -26.98,11.398 -30.482,28.958c-20.976,-5.561 -31.148,3.732 -32.616,24.995c-7.738,0.061 -13.802,4.308 -18.289,12.497c-13.324,-2.232 -26.143,0.199 -28.043,7.621c0.309,4.364 3.439,5.201 7.011,5.487c40.66,4.83 75.189,6.255 108.515,7.01l95.713,0.61c5.401,0.004 10.819,-3.568 8.535,-7.011c-5.036,-7.594 -13.049,-10.085 -23.776,-7.925c4.528,-20.642 -2.49,-34.839 -32.92,-35.969c-3.367,-16.564 -13.012,-25.399 -26.946,-28.957c-3.582,-0.915 -6.81,-1.071 -14.205,3.048c-1.323,-7.245 -8.543,-10.292 -12.497,-10.364Z" style="fill:#e56338;"/><path d="M371.215,83.025c-14.308,0.275 -26.98,11.398 -30.481,28.958c-20.976,-5.561 -31.149,3.732 -32.616,24.995c-7.738,0.061 -13.802,4.308 -18.289,12.497c-13.325,-2.232 -26.143,0.199 -28.043,7.621c0.308,4.364 3.439,5.201 7.01,5.487c40.66,4.83 75.19,6.255 108.516,7.01l95.713,0.61c5.401,0.004 10.818,-3.568 8.535,-7.011c-5.037,-7.594 -13.05,-10.085 -23.776,-7.925c4.528,-20.642 -2.49,-34.839 -32.921,-35.969c-3.366,-16.564 -13.012,-25.399 -26.946,-28.957c-3.582,-0.915 -6.81,-1.071 -14.204,3.048c-1.323,-7.245 -8.544,-10.292 -12.498,-10.364Z" style="fill:#e56338;"/><path d="M1073.77,190.65c14.308,0.275 26.98,11.398 30.482,28.958c20.976,-5.561 31.148,3.732 32.616,24.995c7.738,0.061 13.802,4.308 18.289,12.497c13.324,-2.232 26.143,0.199 28.043,7.621c-0.309,4.364 -3.439,5.201 -7.011,5.487c-40.66,4.83 -75.189,6.255 -108.515,7.01l-95.713,0.61c-5.401,0.004 -10.819,-3.568 -8.535,-7.011c5.036,-7.594 13.049,-10.085 23.776,-7.925c-4.528,-20.642 2.49,-34.839 32.92,-35.969c3.367,-16.564 13.012,-25.399 26.946,-28.957c3.582,-0.915 6.81,-1.071 14.205,3.048c1.323,-7.245 8.543,-10.292 12.497,-10.364Z" style="fill:#e56338;"/></svg>