<?xml version="1.0" encoding="UTF-8" standalone="no"?><!DOCTYPE svg PUBLIC "-//W3C//DTD SVG 1.1//EN" "http://www.w3.org/Graphics/SVG/1.1/DTD/svg11.dtd"><svg width="100%" height="100%" viewBox="0 0 468 553" version="1.1" xmlns="http://www.w3.org/2000/svg" xmlns:xlink="http://www.w3.org/1999/xlink" xml:space="preserve" xmlns:serif="http://www.serif.com/" style="fill-rule:evenodd;clip-rule:evenodd;stroke-linejoin:round;stroke-miterlimit:2;"><g><g><g><g id="Layer2"><path d="M58.673,527.535c-0,0 -10.958,9.297 6.848,20.255c17.807,10.957 77.26,-10.048 77.26,-10.048c106.945,29.432 145.172,-5.979 168.823,-25.565c12.375,-10.249 19.009,-26.578 21.47,-34.243c37.658,10.823 46.652,2.268 64.833,-9.132c30.939,3.941 60.532,3.86 66.837,-13.162c3.969,-10.716 -17.092,-21.372 -44.921,-21.081l-114.6,-49.31l-21.003,117.206c-85.364,-6.645 -163.321,-2.373 -225.547,25.08Z" style="fill:#c18562;"/></g><path id="Layer1" d="M304.14,475.05c-44.65,86.22 -199.5,63.49 -175.6,-48.2c-19.51,-33.47 -17.98,-84.67 1.43,-117.74c10.91,3.51 23.63,-7.11 20.35,-17.75c11.29,5.22 25.61,5.02 37.55,3.46c57.85,-11.31 84.37,28.62 97.45,79.12c2.21,7.96 2.56,16.44 7.07,23.66c2.28,4.12 5.4,6.68 8.83,7.91c12.88,20.6 13.69,48.47 2.92,69.54Z" style="fill:#f8e4c1;"/><path d="M304.14,475.05c-44.65,86.22 -199.5,63.49 -175.6,-48.2c-19.51,-33.47 -17.98,-84.67 1.43,-117.74c10.91,3.51 23.63,-7.11 20.35,-17.75c11.29,5.22 25.61,5.02 37.55,3.46c57.85,-11.31 84.37,28.62 97.45,79.12c2.21,7.96 2.56,16.44 7.07,23.66c2.28,4.12 5.4,6.68 8.83,7.91c12.88,20.6 13.69,48.47 2.92,69.54Z" style="fill:#f8e4c1;"/></g><path d="M232.82,418.1c-39.67,16.57 -37.62,-85.93 -10.86,-87.74c0,0 5.7,-0.85 11.48,3.78c1.21,0.96 1.76,2.56 1.4,4.06l-6.87,28.52c-0.45,1.9 1.76,3.29 3.27,2.06l11.36,-9.21c0.76,-0.62 1.69,-0.38 1.99,0.56c3.91,18.5 7.47,49.57 -11.77,57.97Z" style="fill:#482315;fill-rule:nonzero;"/><path d="M250.14,416.14c-1.43,2.18 -4.8,0.1 -3.4,-2.15c7.74,-13.29 5.99,-30.4 3.82,-45.19c-2.43,-15.7 -5.69,-37.7 -22.75,-43.34c-12.23,-3.57 -19.26,5.6 -23.78,15.87c-0.62,1.55 -3.07,0.61 -2.53,-0.95c2.14,-6.86 5.73,-14.29 12.39,-18.11c27.36,-11.74 40.1,24.78 41.5,45.94c2.21,16.01 3.64,33.37 -5.25,47.93Z" style="fill:#482315;fill-rule:nonzero;"/><path d="M162.35,347.34c-0.65,0.38 -1.41,0.26 -1.79,-0.26c-2.44,-3.34 -5.21,-6.33 -8.39,-8.26c-10.21,-6.23 -23.32,5.07 -26.5,15.23c-2.81,8.98 -2.98,19.05 -2.2,28.22c1.05,12.5 3.09,27.15 11.58,37.47c1.53,1.86 -0.9,4.07 -2.57,2.17c-10,-11.62 -12.79,-25.75 -14.03,-39.24c-1.35,-14.76 -1.35,-35.22 15.6,-46.17c6.34,-4.1 14.88,-5.41 20.71,-1.15c1.97,1.31 10.67,10.01 7.59,11.99Z" style="fill:#482315;fill-rule:nonzero;"/><path d="M164.59,407.19c-7.92,1.07 -14.89,8.57 -14.62,16.68c-26.52,7.68 -36.66,-94.6 1.75,-79.67c1.25,0.68 1.86,2.15 1.56,3.69c-2.1,10.87 -3.21,16.35 -5.15,27.01c-0.36,1.99 1.77,3.18 3.18,1.76c3.65,-3.69 5.56,-5.59 9.61,-9.43c3.58,-2.53 3.27,8.43 4.12,11.21c1.39,9.29 1.64,20.01 -0.45,28.75Z" style="fill:#482315;fill-rule:nonzero;"/><path d="M184.57,416.17c-0.67,0.85 -1.89,1 -2.75,0.39c-25.27,-12.28 -34.87,22.75 -4.03,17.84c2.43,-0.52 3.39,3.1 1.05,3.87c-8.23,2.86 -20.23,1.75 -24.61,-7.24c-7.79,-18.05 17.32,-28.3 30.02,-17.71c0.88,0.7 1.02,1.97 0.32,2.85Z" style="fill:#482315;fill-rule:nonzero;"/><path d="M280.83,410.15c-7.33,-3.52 -16.22,0.38 -20.13,6.91c-3.56,5.21 -5.26,10.51 -9.01,15.06c-16.89,18.39 -42.58,25.95 -67.12,21.61c-8.02,-0.93 -15.41,-4.63 -23.89,-3.3c-9.46,0.58 -17.68,8.74 -17.79,18.36c-1.66,19.16 15.93,31.4 33,32.73c35.51,6.15 115.97,-18.45 117.68,-61.61c0.97,-10.87 -1.64,-24.51 -12.74,-29.76Zm-16.6,65.13c-29.52,17.41 -76.08,33.9 -106.8,11.75c-10.01,-7.49 -11.34,-28.74 4.12,-30.2c15.23,-1.23 30.79,4.13 46.23,2.02c19.73,-2.3 39.92,-11.88 51.9,-28.04c3.69,-5.13 8.17,-12.05 14.17,-12.77c9.51,-0.15 12.35,12.78 12.32,21.43c-0.03,14.38 -8.4,28.61 -21.94,35.81Z" style="fill:#482315;fill-rule:nonzero;"/><g><path d="M257.47,448.61c-10.01,12.09 -25.78,18.12 -40.73,21.52c-0.88,0.15 -1.48,0.99 -1.33,1.87c0.4,4.23 22.44,-4.57 25.39,-5.83c7.63,-3.47 14.85,-8.05 20.39,-14.52c1.98,-2.44 -1.73,-5.45 -3.71,-3.03l-0.01,-0.01Z" style="fill:#482315;fill-rule:nonzero;"/></g><path d="M431.23,408.8c3.58,-3.71 6.35,-8.36 6.06,-13.56c-10.72,-42.2 -55.09,26.06 -25.13,-70.96c5.91,-36.39 -10.37,-79.13 -38.9,-101.63c-8.08,-7.03 -16.94,-13.34 -26.36,-18.69c4.35,-3.8 5.65,-20.55 -6.15,-30.02c-18.45,-12.5 -48.44,-13.79 -69.17,-9.57c5.88,-36.72 -38.55,-22.27 -54.76,-12.95c-14.31,7.83 -25.08,19.56 -35.16,32c-1.39,-9.99 -11.48,-17.27 -21.48,-14.54c-11.38,2.5 -19.84,10.98 -24.65,21.34c-6.02,-7.99 -20.13,-6.34 -24.38,2.85c-25.77,-45.85 -29.97,-113.35 -19.26,-151.02c1.53,-5.38 3.04,-12.89 2.32,-18.48c-0.24,-14.76 -15.63,-27.07 -30.16,-22.66c-19.93,7.17 -22.25,31.51 -23.08,49.47c-0.52,55.8 15.76,110.55 42.33,159.43c-9.15,-1.46 -19.49,1.49 -25.25,9.24c-4.44,6.07 -2.11,13.52 3.93,16.35c-11.96,2.91 -19.51,13.44 -20.34,23.23c-0.36,10.8 11.47,18.21 21.16,14.58c-13.26,18 -21.76,40.79 -16.89,62.87c2.3,8.15 9.57,22.13 20.94,20.15c5.92,17.37 22.61,40.21 15.69,55.64c-7.54,7.18 -21.8,-4.5 -28.78,14.78c-4.31,15.39 9.5,23.54 23.55,23.78c2.96,0.1 6.72,-0.22 9.64,-0.66c11.51,-2.59 13.29,-3.85 22.52,-9.06c2.21,-1.54 4.04,-3.47 5.56,-5.66c-1.22,8.57 -4.04,19.85 -20.47,28.21c-9.78,2.98 -19.08,9.96 -13.92,21.08c9.17,17.97 32.95,5.49 42.07,-6.43c0.02,17.67 -16.3,24.64 -31.91,25.19c-8.12,0.89 -16.96,-0.67 -25.04,0.68c-10.03,2.68 -16.27,15.23 -9.69,25.03c20.62,18.79 75.36,5.97 85.34,-20.19c48.927,51.046 150.266,26.384 172.874,-38.335c0.325,-0.93 0.634,-1.868 0.926,-2.815c0.02,-0.06 3.82,-42.91 -6.52,-61.21c4.02,-0.54 7.96,-2.51 11.1,-5.58c-0.13,23.02 6.64,46.77 26.78,60.2c2.65,1.74 15.91,8.07 21.86,3.38c5.46,-3.53 8.21,-10.78 7.84,-17.16c1.5,0.65 3.06,1.29 4.71,1.95c21.13,8.15 60.21,11.44 72.33,-7.14c6.05,-16.04 -5.94,-25.27 -22.08,-33.11Zm-25.33,-106.94c2.74,22.56 -10.74,41.75 -11.99,64.06c-1.56,16.96 7.14,26.33 23.98,22.33c8.54,-2.13 14.08,8.92 8.32,14.8c-7.26,5.93 -18.43,5.96 -27.11,5.25c-31.97,-7.73 -25.17,-48.26 -20.66,-73.07c5.57,-11.32 -0.77,-26.32 -8.42,-39.23c19.36,5.16 31.96,-14.45 18.49,-33.57c-12.1,-15.61 -25.82,-29.28 -41.1,-40.13c-23.2,-16.38 -49.5,-26.14 -79.57,-26.46c0.88,-2.11 1.21,-5.37 1.24,-5.58l-0,0.05c26.58,-2.32 53.26,5.65 76.04,19.23c34.64,19.48 57.76,52.15 60.78,92.32Zm-136.59,-132.77c-0.07,0.11 -0.15,0.23 -0.23,0.34c22.06,-1.7 47.35,0.1 67.09,10.5c7.43,4.62 8.52,16.39 4.46,20.65c-22.22,-11.31 -47.13,-17.26 -72,-14.91c-0.9,-3.95 -3.15,-7.62 -6.38,-10.22c2.8,-1.53 5.27,-3.73 7.06,-6.36Zm-219.2,-118.32c1.12,-14.1 2.27,-34.49 16.79,-40.61c8.89,-2.2 17.6,4.68 18.07,14.26c0.71,4.35 -1.05,11.66 -1.88,15.92c-13.09,69.2 6.36,141.46 44.75,199.52c0.63,0.99 -0.54,3.01 -1.43,3.76c-2.59,1.88 -9.88,5.78 -14.04,2.66c-38.2,-56.71 -64.05,-126.79 -62.26,-195.51Zm82.61,186.28c-1.87,-3.56 -3.88,-7.42 -5.96,-11.5c24.13,-0.12 22.13,25.3 0.5,33.66c-9.6,4.54 -25.21,4.09 -29.16,-5.95c-1.82,-4.3 -1.08,-10.16 2.59,-14.46c1.98,3 3.98,6 6.03,8.95c6.12,10.2 32.42,-0.47 26,-10.7Zm-11.79,232.18c-5.06,8.5 -12.72,15.7 -22.15,17.9c-7.99,1.84 -13.38,-3.67 -12.69,-8.78c0.54,-3.7 4.13,-6.05 7.89,-7.36c18.83,-6.3 27.53,-21.73 24.49,-42.69c1.06,-2.87 1.73,-5.89 2.08,-8.85c1.47,2.85 3.07,5.59 4.78,8.18c-5.51,13.02 -6.89,27.66 -4.4,41.6Zm-39.31,61.24c-6.82,-0.53 -17.64,-1.11 -20.92,-7.48c-2.08,-7.61 4.29,-13.88 12.09,-12.97c19.42,0.05 47.95,-2.88 52.23,-26.32c2.94,7.48 7.11,14.46 12.45,20.52c-8.77,20.77 -35.27,26.72 -55.85,26.25Zm222.52,-55.42c-44.65,86.22 -199.5,63.49 -175.6,-48.2c0,0 0,0.01 0,0c-19.51,-33.47 -17.98,-84.67 1.43,-117.74c10.91,3.51 23.63,-7.11 20.35,-17.75c11.29,5.22 25.61,5.02 37.55,3.46c57.85,-11.31 84.37,28.62 97.45,79.12c2.21,7.96 2.56,16.44 7.07,23.66c2.28,4.12 5.4,6.68 8.83,7.91c12.88,20.6 13.69,48.47 2.92,69.54Zm-146.77,-209.66c14.34,7.87 31.37,6.82 46.79,4.9c65.87,-9.33 101.34,47.07 110.04,104.93c0.74,5.23 2.03,13.48 -2.25,17.25c-29.42,23.59 -11.32,-118.41 -117.25,-105.28c-18.42,2.51 -42.35,6.53 -55.59,-9.83c-1.16,-1.57 -3.56,-0.19 -2.74,1.64c1.96,3.32 4.39,6.06 7.23,8.29c5.08,8.14 -4.48,18.45 -12.68,15.09c-7.36,-4.71 -11.47,-17.52 -11.42,-26.67c0.07,-1.27 -1.86,-1.59 -2.19,-0.35c-2.16,7.91 -0.96,18.95 3.89,26.42c-12.36,20.9 -16.43,49.95 -12.87,77.12c-3.04,2.77 -7.45,4.42 -11.5,2.34c-10.43,-4.93 -6.46,-31.92 -6.73,-42.13c0.88,-21.55 7.89,-42.14 20.03,-59.99c1.03,-1.63 -1.33,-3.15 -2.43,-1.67c-6.37,8.89 -12.09,18.44 -16.05,28.83c-7.04,18.63 -12.58,56.11 -5.78,74.79c4.29,8.66 15.68,11.75 24.01,7.39c0,-0.01 -0.05,0.03 0,0c0.96,4.78 2.76,11.12 4.21,15.63c0.15,0.48 0,0 0,0c1.14,12.18 -2.13,25.82 -13.1,31.74c-6.6,3.8 -14.41,6.03 -22.05,6.28c-8.19,0.4 -20.82,-3.04 -17.79,-13.06c1.87,-8.15 9.19,-6.87 16.44,-7.25c29.41,-5.34 4.46,-46.35 -2.69,-61.7c-14.33,-30.69 -1.65,-68.79 21.07,-92.14c0.62,-0.61 0.64,-1.62 0.04,-2.26c-0.61,-0.65 -1.64,-0.68 -2.29,-0.07c-21.23,20.63 -34.79,52.47 -28.96,82.11c-2.86,-0.44 -7.32,-1.55 -10.21,-7.95c-11.11,-22.18 4.12,-66.87 24.87,-79.1c1.5,-0.29 0.95,-2.56 -0.49,-2.18c-5.62,1.76 -8.88,5.81 -12.41,9.9c-6.21,1.55 -13.43,1.96 -17.15,-4.48c-7.26,-17.7 21.28,-29.37 35.74,-27.38c0.68,0.06 1.33,-0.39 1.5,-1.08c0.19,-0.76 -0.28,-1.53 -1.04,-1.72c-6.27,-1.47 -12.86,-1.26 -19.11,0.28c-14.83,-10.48 7.79,-19.8 19.16,-20.21c0.49,0.87 7.85,13.78 12.6,21.18c-4.36,6.71 -7.16,13.82 -4.23,20.48c4.88,14.28 22.71,15.95 35.87,9.91c30.42,-12.16 27.18,-49.41 -6.37,-46.34c-3.07,-6.15 -6.23,-12.67 -9.32,-19.34c2.32,-7.92 12.18,-12.4 20.15,-6.69c-2.62,6.71 -3.77,14.02 -3.29,20.91c0.12,1.94 3.13,1.93 3.25,0c1.41,-16.26 11.17,-35.77 28.77,-38.2c7.08,-1.77 14.47,6.7 13.1,14.58c-7.46,9.46 -14.82,18.98 -23.31,27.21c-2.84,11.15 22.14,-17.94 23.5,-19.68c18.76,-22.29 40.93,-46.16 71.49,-48.92c4.05,-0.05 8.75,-1.37 12.38,0.85c5.53,3.85 5.83,13.55 0.4,17.84c-0.27,0.22 -0.55,0.42 -0.85,0.61c-4.29,2.79 -9.48,2.57 -14.69,3.55c-19.41,3.19 -37.96,12.43 -51.83,26.33c-8.14,6.44 -16.46,12.48 -23.73,19.72c-1.06,1.15 0.44,3.01 1.79,2.25l0.92,-0.48c23.01,-17.16 48.27,-36.13 77.49,-39.36c9.37,-0.92 14.24,11.05 6.74,16.72c-15.13,7.92 -37.71,14.14 -55.38,21.44c-0.72,0.28 -1.17,1.05 -1.01,1.84c0.18,0.88 1.04,1.45 1.92,1.27c5,-0.97 9.94,-2.16 14.89,-3.31c13.19,-4.43 38.62,-6.7 48.35,-18.21c47.47,-0.07 87.89,31.02 115.17,67.77l0,0.02c6.71,11.37 -0.7,21.99 -13.19,14.7c-5.84,-3.17 -35.21,-38.55 -60.48,-50.46c-0.03,-0.01 0.03,0.01 0,0c-0.51,-0.29 0.5,0.29 0,0c-5.21,-3.05 -19.29,-8.5 -19.53,-8.57c-24.94,-7.3 -40.76,-6.57 -54.66,-3.24c-5.93,-1.82 -13.06,2.16 -18.97,3.6c-13.99,4.89 -34.34,12.63 -48.46,17.74c-7.62,7.35 46.88,-12.16 50.12,-12.16c2.02,-0.53 7.33,-1.94 9.28,-2.41c12.35,-4.29 16.76,10.7 7.53,16.18c-1.09,0 -2.17,0.01 -3.26,0.05c-19.23,1.51 -37.53,8.19 -56.63,9.08c-0.82,0.05 -1.49,0.71 -1.53,1.54c-0.04,0.9 0.66,1.66 1.55,1.7c41.46,-0.25 61.82,-15.87 102.49,5.05c31.09,16.91 41.06,53.46 61.86,80.15c5.32,7.04 13.5,12.42 16.02,21.27c1.44,4.09 1.66,8.23 -2.53,10.94c-8.2,4.9 -18.28,-1.76 -26.14,-8.77c-4.09,-20.32 -12.32,-39.8 -23.76,-57.05c-23.86,-41.08 -68.31,-50.93 -111.85,-41.38c-9.91,0.75 -20.15,0.23 -29.11,-3.89c-2.41,-1.1 -3.77,2.49 -1.77,3.54l0,0.01Zm81.56,-41.73c32.62,-3.2 65.1,11.92 88.59,33.8c10.1,9.61 62.19,73.32 32.43,78.09c-7.23,-0.13 -10.08,-8.51 -12.99,-14.84c-19.72,-38.51 -61.53,-72.89 -106,-77.11c0.5,-0.65 1.05,-1.62 1.41,-2.34c3.38,-6.61 1.29,-13.44 -3.44,-17.6Zm122.66,232.94c-27.67,-4.13 -34.96,-39.04 -37.28,-62.33c2.57,-4.79 2.65,-10.79 1.68,-16.27c4.57,3.92 10.1,6.67 15.74,7.37c-1.19,18.21 3.67,40.38 17.95,52.38c2.94,2.26 6.03,4.19 9.49,6.01c-0.17,5.31 -0.81,13.72 -7.58,12.84Zm61.69,-9.74c0,0 0.04,0.02 0.09,0.04c-48.94,0.95 -74.76,-16.41 -77.25,-61.4l-0.08,0c3.54,-0.26 7.04,-1.41 10.3,-3.68c11.75,-8.34 7.88,-22.75 0.38,-32.71c-3.91,-5.25 -9.35,-8.98 -13.55,-14c-20.55,-23.58 -24.6,-43.58 -43.89,-59.87c17.43,12.66 32.24,29.06 41.26,48.47c1.54,3.54 3.42,8.42 5.71,11.55c6.22,9.85 15.08,12.42 22.39,9.41c-10.11,28.16 -2.19,66.7 29,72.66c7.38,0.66 17.6,0.95 25.53,-2.58c6.98,0.08 13.1,5.68 18.93,10.73c2.31,1.93 2.86,2.78 3.93,5.21c4.69,13.08 -13.31,15.27 -22.75,16.17Z" style="fill:#482315;fill-rule:nonzero;"/><path d="M50.11,50.77c1.12,-14.1 2.27,-34.49 16.79,-40.61c8.89,-2.2 17.6,4.68 18.07,14.26c0.71,4.35 -1.05,11.66 -1.88,15.92c-13.09,69.2 6.36,141.46 44.75,199.52c0.63,0.99 -0.54,3.01 -1.43,3.76c-2.59,1.88 -9.88,5.78 -14.04,2.66c-38.2,-56.71 -64.05,-126.79 -62.26,-195.51Z" style="fill:#c79270;"/><path d="M132.72,237.05c-1.87,-3.56 -3.88,-7.42 -5.96,-11.5c24.13,-0.12 22.13,25.3 0.5,33.66c-9.6,4.54 -25.21,4.09 -29.16,-5.95c-1.82,-4.3 -1.08,-10.16 2.59,-14.46c1.98,3 3.98,6 6.03,8.95c6.12,10.2 32.42,-0.47 26,-10.7Z" style="fill:#e76738;"/><path d="M109.88,388.46c0.96,4.78 2.76,11.12 4.21,15.63c1.14,12.18 -2.13,25.82 -13.1,31.74c-6.6,3.8 -14.41,6.03 -22.05,6.28c-8.19,0.4 -20.82,-3.04 -17.79,-13.06c1.87,-8.15 9.19,-6.87 16.44,-7.25c29.41,-5.34 4.46,-46.35 -2.69,-61.7c-14.33,-30.69 -1.65,-68.79 21.07,-92.14c0.62,-0.61 0.64,-1.62 0.04,-2.26c-0.61,-0.65 -1.64,-0.68 -2.29,-0.07c-21.23,20.63 -34.79,52.47 -28.96,82.11c-2.86,-0.44 -7.32,-1.55 -10.21,-7.95c-11.11,-22.18 4.12,-66.87 24.87,-79.1c1.5,-0.29 0.95,-2.56 -0.49,-2.18c-5.62,1.76 -8.88,5.81 -12.41,9.9c-6.21,1.55 -13.43,1.96 -17.15,-4.48c-7.26,-17.7 21.28,-29.37 35.74,-27.38c0.68,0.06 1.33,-0.39 1.5,-1.08c0.19,-0.76 -0.28,-1.53 -1.04,-1.72c-6.27,-1.47 -12.86,-1.26 -19.11,0.28c-14.83,-10.48 7.79,-19.8 19.16,-20.21c0.49,0.87 7.85,13.78 12.6,21.18c-4.36,6.71 -7.16,13.82 -4.23,20.48c4.88,14.28 22.71,15.95 35.87,9.91c30.42,-12.16 27.18,-49.41 -6.37,-46.34c-3.07,-6.15 -6.23,-12.67 -9.32,-19.34c2.32,-7.92 12.18,-12.4 20.15,-6.69c-2.62,6.71 -3.77,14.02 -3.29,20.91c0.12,1.94 3.13,1.93 3.25,-0c1.41,-16.26 11.17,-35.77 28.77,-38.2c7.08,-1.77 14.47,6.7 13.1,14.58c-7.46,9.46 -14.82,18.98 -23.31,27.21c-2.84,11.15 22.14,-17.94 23.5,-19.68c18.76,-22.29 40.93,-46.16 71.49,-48.92c4.05,-0.05 8.75,-1.37 12.38,0.85c5.53,3.85 5.83,13.55 0.4,17.84c-0.27,0.22 -0.55,0.42 -0.85,0.61c-4.29,2.79 -9.48,2.57 -14.69,3.55c-19.41,3.19 -37.96,12.43 -51.83,26.33c-8.14,6.44 -16.46,12.48 -23.73,19.72c-1.06,1.15 0.44,3.01 1.79,2.25l0.92,-0.48c23.01,-17.16 48.27,-36.13 77.49,-39.36c9.37,-0.92 14.24,11.05 6.74,16.72c-15.13,7.92 -37.71,14.14 -55.38,21.44c-0.72,0.28 -1.17,1.05 -1.01,1.84c0.18,0.88 1.04,1.45 1.92,1.27c5,-0.97 9.94,-2.16 14.89,-3.31c13.19,-4.43 38.62,-6.7 48.35,-18.21c47.47,-0.07 87.89,31.02 115.17,67.77l0,0.02c6.71,11.37 -0.7,21.99 -13.19,14.7c-5.84,-3.17 -35.21,-38.55 -60.48,-50.46c-5.21,-3.05 -19.29,-8.5 -19.53,-8.57c-24.94,-7.3 -40.76,-6.57 -54.66,-3.24c-5.93,-1.82 -13.06,2.16 -18.97,3.6c-13.99,4.89 -34.34,12.63 -48.46,17.74c-7.62,7.35 46.88,-12.16 50.12,-12.16c2.02,-0.53 7.33,-1.94 9.28,-2.41c12.35,-4.29 16.76,10.7 7.53,16.18c-1.09,-0 -2.17,0.01 -3.26,0.05c-19.23,1.51 -37.53,8.19 -56.63,9.08c-0.82,0.05 -1.49,0.71 -1.53,1.54c-0.04,0.9 0.66,1.66 1.55,1.7c41.46,-0.25 61.82,-15.87 102.49,5.05c31.09,16.91 41.06,53.46 61.86,80.15c5.32,7.04 13.5,12.42 16.02,21.27c1.44,4.09 1.66,8.23 -2.53,10.94c-8.2,4.9 -18.28,-1.76 -26.14,-8.77c-4.09,-20.32 -12.32,-39.8 -23.76,-57.05c-23.86,-41.08 -68.31,-50.93 -111.85,-41.38c-9.91,0.75 -20.15,0.23 -29.11,-3.89c-2.41,-1.1 -3.77,2.49 -1.77,3.54l0,0.01c14.34,7.87 31.37,6.82 46.79,4.9c65.87,-9.33 101.34,47.07 110.04,104.93c0.74,5.23 2.03,13.48 -2.25,17.25c-29.42,23.59 -11.32,-118.41 -117.25,-105.28c-18.42,2.51 -42.35,6.53 -55.59,-9.83c-1.16,-1.57 -3.56,-0.19 -2.74,1.64c1.96,3.32 4.39,6.06 7.23,8.29c5.08,8.14 -4.48,18.45 -12.68,15.09c-7.36,-4.71 -11.47,-17.52 -11.42,-26.67c0.07,-1.27 -1.86,-1.59 -2.19,-0.35c-2.16,7.91 -0.96,18.95 3.89,26.42c-12.36,20.9 -16.43,49.95 -12.87,77.12c-3.04,2.77 -7.45,4.42 -11.5,2.34c-10.43,-4.93 -6.46,-31.92 -6.73,-42.13c0.88,-21.55 7.89,-42.14 20.03,-59.99c1.03,-1.63 -1.33,-3.15 -2.43,-1.67c-6.37,8.89 -12.09,18.44 -16.05,28.83c-7.04,18.63 -12.58,56.11 -5.78,74.79c4.286,8.652 15.66,11.745 23.988,7.401c0.002,0 0.008,-0.003 0.022,-0.011Zm159.43,-219.37c-0.07,0.11 -0.15,0.23 -0.23,0.34c22.06,-1.7 47.35,0.1 67.09,10.5c7.43,4.62 8.52,16.39 4.46,20.65c-22.22,-11.31 -47.13,-17.26 -72,-14.91c-0.9,-3.95 -3.15,-7.62 -6.38,-10.22c2.8,-1.53 5.27,-3.73 7.06,-6.36Zm136.59,132.77c2.74,22.56 -10.74,41.75 -11.99,64.06c-1.56,16.96 7.14,26.33 23.98,22.33c8.54,-2.13 14.08,8.92 8.32,14.8c-7.26,5.93 -18.43,5.96 -27.11,5.25c-31.97,-7.73 -25.17,-48.26 -20.66,-73.07c5.57,-11.32 -0.77,-26.32 -8.42,-39.23c19.36,5.16 31.96,-14.45 18.49,-33.57c-12.1,-15.61 -25.82,-29.28 -41.1,-40.13c-23.2,-16.38 -49.5,-26.14 -79.57,-26.46c0.88,-2.11 1.21,-5.37 1.24,-5.58l0,0.05c26.58,-2.32 53.26,5.65 76.04,19.23c34.64,19.48 57.76,52.15 60.78,92.32Zm-324.28,228.61c-6.82,-0.53 -17.64,-1.11 -20.92,-7.48c-2.08,-7.61 4.29,-13.88 12.09,-12.97c19.42,0.05 47.95,-2.88 52.23,-26.32c2.94,7.48 7.11,14.46 12.45,20.52c-8.77,20.77 -35.27,26.72 -55.85,26.25Zm341.66,-83.61c0,0 0.04,0.02 0.09,0.04c-48.94,0.95 -74.76,-16.41 -77.25,-61.4l-0.08,0c3.54,-0.26 7.04,-1.41 10.3,-3.68c11.75,-8.34 7.88,-22.75 0.38,-32.71c-3.91,-5.25 -9.35,-8.98 -13.55,-14c-20.55,-23.58 -24.6,-43.58 -43.89,-59.87c17.43,12.66 32.24,29.06 41.26,48.47c1.54,3.54 3.42,8.42 5.71,11.55c6.22,9.85 15.08,12.42 22.39,9.41c-10.11,28.16 -2.19,66.7 29,72.66c7.38,0.66 17.6,0.95 25.53,-2.58c6.98,0.08 13.1,5.68 18.93,10.73c2.31,1.93 2.86,2.78 3.93,5.21c4.69,13.08 -13.31,15.27 -22.75,16.17Zm-302.35,22.37c-5.06,8.5 -12.72,15.7 -22.15,17.9c-7.99,1.84 -13.38,-3.67 -12.69,-8.78c0.54,-3.7 4.13,-6.05 7.89,-7.36c18.83,-6.3 27.53,-21.73 24.49,-42.69c1.06,-2.87 1.73,-5.89 2.08,-8.85c1.47,2.85 3.07,5.59 4.78,8.18c-5.51,13.02 -6.89,27.66 -4.4,41.6Zm240.66,-12.63c-27.67,-4.13 -34.96,-39.04 -37.28,-62.33c2.57,-4.79 2.65,-10.79 1.68,-16.27c4.57,3.92 10.1,6.67 15.74,7.37c-1.19,18.21 3.67,40.38 17.95,52.38c2.94,2.26 6.03,4.19 9.49,6.01c-0.17,5.31 -0.81,13.72 -7.58,12.84Zm-122.66,-232.94c32.62,-3.2 65.1,11.92 88.59,33.8c10.1,9.61 62.19,73.32 32.43,78.09c-7.23,-0.13 -10.08,-8.51 -12.99,-14.84c-19.72,-38.51 -61.53,-72.89 -106,-77.11c0.5,-0.65 1.05,-1.62 1.41,-2.34c3.38,-6.61 1.29,-13.44 -3.44,-17.6Z" style="fill:#e76738;"/><path d="M121.525,492.995c1.644,-2.669 2.847,-5.747 3.495,-9.295c2.94,7.48 7.11,14.46 12.45,20.52c-1.022,2.42 -2.285,4.64 -3.751,6.671c-4.885,-5.224 -9.017,-11.194 -12.194,-17.896Zm-7.073,-37.897c4.129,-7.258 5.535,-16.339 4.018,-26.798c1.06,-2.87 1.73,-5.89 2.08,-8.85c1.47,2.85 3.07,5.59 4.78,8.18c-5.51,13.02 -6.89,27.66 -4.4,41.6c-1.449,2.435 -3.112,4.763 -4.969,6.897c-1.311,-6.513 -1.854,-13.525 -1.509,-21.029Z" style="fill:#cd4922;"/></g></g></svg>