<?xml version="1.0" encoding="UTF-8" standalone="no"?><!DOCTYPE svg PUBLIC "-//W3C//DTD SVG 1.1//EN" "http://www.w3.org/Graphics/SVG/1.1/DTD/svg11.dtd"><svg width="100%" height="100%" viewBox="0 0 1845 923" version="1.1" xmlns="http://www.w3.org/2000/svg" xmlns:xlink="http://www.w3.org/1999/xlink" xml:space="preserve" xmlns:serif="http://www.serif.com/" style="fill-rule:evenodd;clip-rule:evenodd;stroke-linejoin:round;stroke-miterlimit:2;"><path d="M899.304,295.2c0.612,-0 1.116,0.48 1.146,1.091c0.031,0.61 -0.423,1.138 -1.032,1.199c-138.867,13.895 -863.812,86.432 -898.156,89.869c-0.323,0.032 -0.644,-0.074 -0.884,-0.291c-0.241,-0.218 -0.378,-0.527 -0.378,-0.851l0,-89.869c0,-0.305 0.121,-0.597 0.336,-0.812c0.215,-0.215 0.507,-0.336 0.812,-0.336l898.156,-0Z" style="fill:#f2b587;"/><path d="M945.3,295.2c-0.612,-0 -1.116,0.48 -1.146,1.091c-0.031,0.61 0.423,1.138 1.032,1.199c138.867,13.895 863.812,86.432 898.156,89.869c0.323,0.032 0.644,-0.074 0.884,-0.291c0.241,-0.218 0.378,-0.527 0.378,-0.851l0,-89.869c0,-0.305 -0.121,-0.597 -0.336,-0.812c-0.215,-0.215 -0.507,-0.336 -0.812,-0.336l-898.156,-0Z" style="fill:#f2b587;"/><path d="M921.16,306.613c0.059,-0.586 0.552,-1.033 1.142,-1.033c0.59,-0 1.083,0.447 1.142,1.033c10.582,105.761 91.143,910.889 91.143,910.889l-184.57,-0c0,-0 80.561,-805.128 91.143,-910.889Z" style="fill:#f2b587;"/><path d="M910.885,297.051c0.624,-0.095 1.224,0.266 1.388,0.836c0.163,0.569 -0.162,1.162 -0.754,1.37c-106.683,37.595 -918.829,323.793 -918.829,323.793l-51.26,-178.281c-0,-0 856.894,-130.567 969.455,-147.718Z" style="fill:#f2b587;"/><path d="M913.225,302.484c0.505,-0.403 1.24,-0.368 1.701,0.084c0.462,0.451 0.498,1.171 0.086,1.664c-74.439,89.033 -641.118,766.814 -641.118,766.814l-144.35,-141.243c-0,-0 692.69,-554.483 783.681,-627.319Z" style="fill:#edb88b;"/><path d="M918.245,305.929c0.209,-0.552 0.801,-0.855 1.371,-0.703c0.569,0.153 0.93,0.712 0.835,1.294c-17.151,104.896 -147.718,903.44 -147.718,903.44l-178.281,-47.77c0,-0 286.198,-756.843 323.793,-856.261Z" style="fill:#edb88b;"/><path d="M924.153,306.52c-0.095,-0.582 0.266,-1.141 0.836,-1.294c0.569,-0.152 1.162,0.151 1.37,0.703c37.595,99.418 323.793,856.261 323.793,856.261l-178.281,47.77c0,-0 -130.567,-798.544 -147.718,-903.44Z" style="fill:#edb88b;"/><path d="M929.582,304.232c-0.397,-0.493 -0.362,-1.213 0.082,-1.664c0.444,-0.452 1.152,-0.487 1.638,-0.084c87.608,72.836 754.546,627.319 754.546,627.319l-138.984,141.243c0,-0 -545.612,-677.781 -617.282,-766.814Z" style="fill:#f2b587;"/><path d="M933.078,299.69c-0.587,-0.248 -0.909,-0.957 -0.748,-1.637c0.163,-0.681 0.757,-1.113 1.376,-0.999c111.491,20.496 960.243,176.524 960.243,176.524l-50.773,213.047c-0,-0 -804.429,-342.009 -910.098,-386.935Z" style="fill:#f2b587;"/><path d="M1393.65,215.25c-14.308,0.275 -26.98,11.398 -30.482,28.958c-20.976,-5.561 -31.148,3.732 -32.616,24.995c-7.738,0.061 -13.802,4.308 -18.289,12.497c-13.324,-2.232 -26.143,0.199 -28.043,7.621c0.309,4.364 3.439,5.201 7.011,5.487c40.66,4.83 75.189,6.255 108.515,7.01l95.713,0.61c5.401,0.004 10.819,-3.568 8.535,-7.011c-5.036,-7.594 -13.049,-10.085 -23.776,-7.925c4.528,-20.642 -2.49,-34.839 -32.92,-35.969c-3.367,-16.564 -13.012,-25.399 -26.946,-28.957c-3.582,-0.915 -6.81,-1.071 -14.205,3.048c-1.323,-7.245 -8.543,-10.292 -12.497,-10.364Z" style="fill:#e56338;"/><path d="M371.215,298.275c-14.308,0.275 -26.98,11.398 -30.481,28.958c-20.976,-5.561 -31.149,3.732 -32.616,24.995c-7.738,0.061 -13.802,4.308 -18.289,12.497c-13.325,-2.232 -26.143,0.199 -28.043,7.621c0.308,4.364 3.439,5.201 7.01,5.487c40.66,4.83 75.19,6.255 108.516,7.01l95.713,0.61c5.401,0.004 10.818,-3.568 8.535,-7.011c-5.037,-7.594 -13.05,-10.085 -23.776,-7.925c4.528,-20.642 -2.49,-34.839 -32.921,-35.969c-3.366,-16.564 -13.012,-25.399 -26.946,-28.957c-3.582,-0.915 -6.81,-1.071 -14.204,3.048c-1.323,-7.245 -8.544,-10.292 -12.498,-10.364Z" style="fill:#e56338;"/><path d="M1073.77,405.9c14.308,0.275 26.98,11.398 30.482,28.958c20.976,-5.561 31.148,3.732 32.616,24.995c7.738,0.061 13.802,4.308 18.289,12.497c13.324,-2.232 26.143,0.199 28.043,7.621c-0.309,4.364 -3.439,5.201 -7.011,5.487c-40.66,4.83 -75.189,6.255 -108.515,7.01l-95.713,0.61c-5.401,0.004 -10.819,-3.568 -8.535,-7.011c5.036,-7.594 13.049,-10.085 23.776,-7.925c-4.528,-20.642 2.49,-34.839 32.92,-35.969c3.367,-16.564 13.012,-25.399 26.946,-28.957c3.582,-0.915 6.81,-1.071 14.205,3.048c1.323,-7.245 8.543,-10.292 12.497,-10.364Z" style="fill:#e56338;"/><g><g><g id="Layer2"><path d="M831.003,312.22c-0,-0 -6.419,5.445 4.011,11.864c10.431,6.419 45.256,-5.885 45.256,-5.885c62.644,17.24 85.036,-3.502 98.89,-14.975c7.248,-6.003 11.135,-15.569 12.576,-20.059c22.059,6.34 27.327,1.329 37.977,-5.349c18.122,2.309 35.457,2.261 39.15,-7.709c2.325,-6.278 -10.012,-12.519 -26.313,-12.349l-67.128,-28.884l-12.303,68.655c-50.003,-3.892 -95.667,-1.39 -132.116,14.691Z" style="fill:#c18562;"/></g><path id="Layer1" d="M974.788,281.476c-26.155,50.504 -116.859,37.19 -102.86,-28.233c-11.428,-19.606 -10.532,-49.597 0.838,-68.968c6.39,2.056 13.841,-4.164 11.92,-10.397c6.613,3.058 15.001,2.941 21.995,2.027c33.886,-6.625 49.421,16.764 57.083,46.345c1.294,4.663 1.499,9.63 4.141,13.859c1.335,2.413 3.163,3.913 5.172,4.633c7.545,12.067 8.019,28.392 1.711,40.734Z" style="fill:#f8e4c1;"/><path d="M974.788,281.476c-26.155,50.504 -116.859,37.19 -102.86,-28.233c-11.428,-19.606 -10.532,-49.597 0.838,-68.968c6.39,2.056 13.841,-4.164 11.92,-10.397c6.613,3.058 15.001,2.941 21.995,2.027c33.886,-6.625 49.421,16.764 57.083,46.345c1.294,4.663 1.499,9.63 4.141,13.859c1.335,2.413 3.163,3.913 5.172,4.633c7.545,12.067 8.019,28.392 1.711,40.734Z" style="fill:#f8e4c1;"/></g><path d="M933.011,248.117c-23.237,9.706 -22.036,-50.334 -6.361,-51.394c-0,-0 3.339,-0.498 6.724,2.214c0.709,0.562 1.031,1.499 0.82,2.378l-4.024,16.706c-0.263,1.113 1.031,1.927 1.916,1.207l6.654,-5.395c0.445,-0.363 0.99,-0.223 1.166,0.328c2.29,10.836 4.375,29.036 -6.895,33.956Z" style="fill:#482315;fill-rule:nonzero;"/><path d="M943.157,246.969c-0.838,1.277 -2.812,0.059 -1.992,-1.259c4.534,-7.785 3.509,-17.807 2.238,-26.471c-1.424,-9.196 -3.333,-22.083 -13.326,-25.387c-7.164,-2.091 -11.282,3.281 -13.93,9.296c-0.363,0.908 -1.798,0.358 -1.482,-0.556c1.254,-4.018 3.357,-8.371 7.258,-10.608c16.026,-6.877 23.489,14.515 24.309,26.91c1.294,9.378 2.132,19.546 -3.075,28.075Z" style="fill:#482315;fill-rule:nonzero;"/><path d="M891.733,206.669c-0.381,0.222 -0.826,0.152 -1.049,-0.152c-1.429,-1.957 -3.052,-3.708 -4.914,-4.839c-5.981,-3.649 -13.66,2.97 -15.523,8.921c-1.646,5.26 -1.745,11.159 -1.289,16.53c0.615,7.322 1.81,15.904 6.783,21.949c0.897,1.089 -0.527,2.384 -1.505,1.271c-5.858,-6.807 -7.492,-15.083 -8.218,-22.985c-0.791,-8.646 -0.791,-20.631 9.138,-27.045c3.713,-2.401 8.716,-3.169 12.131,-0.673c1.154,0.767 6.25,5.863 4.446,7.023Z" style="fill:#482315;fill-rule:nonzero;"/><path d="M893.045,241.727c-4.639,0.626 -8.722,5.02 -8.564,9.77c-15.534,4.499 -21.474,-55.413 1.025,-46.667c0.732,0.398 1.09,1.259 0.914,2.161c-1.23,6.367 -1.88,9.577 -3.017,15.821c-0.211,1.166 1.037,1.863 1.863,1.031c2.138,-2.161 3.257,-3.274 5.629,-5.523c2.097,-1.482 1.916,4.938 2.413,6.566c0.815,5.442 0.961,11.721 -0.263,16.841Z" style="fill:#482315;fill-rule:nonzero;"/><path d="M904.748,246.987c-0.392,0.498 -1.107,0.585 -1.611,0.228c-14.802,-7.193 -20.425,13.326 -2.36,10.45c1.423,-0.305 1.986,1.816 0.615,2.267c-4.821,1.675 -11.85,1.025 -14.416,-4.241c-4.563,-10.573 10.146,-16.577 17.585,-10.374c0.515,0.41 0.597,1.154 0.187,1.67Z" style="fill:#482315;fill-rule:nonzero;"/><path d="M961.133,243.46c-4.293,-2.061 -9.501,0.223 -11.791,4.048c-2.085,3.052 -3.081,6.156 -5.278,8.822c-9.893,10.772 -24.941,15.2 -39.316,12.658c-4.697,-0.545 -9.026,-2.712 -13.993,-1.933c-5.542,0.34 -10.357,5.119 -10.421,10.754c-0.973,11.223 9.331,18.393 19.33,19.172c20.8,3.603 67.93,-10.807 68.932,-36.088c0.568,-6.368 -0.961,-14.357 -7.463,-17.433Zm-9.723,38.151c-17.292,10.198 -44.565,19.857 -62.559,6.883c-5.864,-4.388 -6.643,-16.835 2.413,-17.69c8.921,-0.721 18.036,2.419 27.08,1.183c11.557,-1.347 23.383,-6.959 30.401,-16.425c2.161,-3.005 4.785,-7.058 8.3,-7.48c5.57,-0.088 7.234,7.486 7.216,12.553c-0.017,8.423 -4.92,16.758 -12.851,20.976Z" style="fill:#482315;fill-rule:nonzero;"/><g><path d="M947.45,265.989c-5.863,7.082 -15.101,10.614 -23.858,12.605c-0.515,0.088 -0.867,0.58 -0.779,1.096c0.234,2.477 13.145,-2.677 14.873,-3.415c4.469,-2.033 8.698,-4.716 11.943,-8.506c1.16,-1.429 -1.013,-3.192 -2.173,-1.774l-0.006,-0.006Z" style="fill:#482315;fill-rule:nonzero;"/></g><path d="M1049.23,242.67c2.097,-2.174 3.719,-4.897 3.549,-7.943c-6.279,-24.719 -32.269,15.265 -14.72,-41.566c3.462,-21.316 -6.074,-46.351 -22.786,-59.53c-4.733,-4.118 -9.923,-7.815 -15.44,-10.948c2.548,-2.226 3.309,-12.038 -3.603,-17.585c-10.807,-7.322 -28.374,-8.077 -40.517,-5.606c3.444,-21.509 -22.581,-13.044 -32.076,-7.585c-8.382,4.586 -14.691,11.457 -20.595,18.744c-0.814,-5.852 -6.725,-10.116 -12.582,-8.517c-6.666,1.465 -11.622,6.432 -14.439,12.5c-3.527,-4.68 -11.792,-3.713 -14.281,1.67c-15.095,-26.857 -17.555,-66.396 -11.282,-88.462c0.896,-3.151 1.781,-7.55 1.359,-10.824c-0.141,-8.646 -9.155,-15.857 -17.666,-13.274c-11.675,4.2 -13.034,18.458 -13.52,28.978c-0.304,32.685 9.232,64.755 24.795,93.387c-5.359,-0.855 -11.416,0.873 -14.79,5.413c-2.601,3.555 -1.236,7.919 2.302,9.577c-7.006,1.705 -11.428,7.873 -11.914,13.607c-0.211,6.326 6.718,10.667 12.394,8.541c-7.767,10.543 -12.746,23.893 -9.893,36.826c1.347,4.774 5.606,12.963 12.266,11.803c3.467,10.175 13.244,23.554 9.19,32.592c-4.416,4.206 -12.769,-2.636 -16.858,8.657c-2.525,9.015 5.565,13.789 13.795,13.93c1.734,0.058 3.936,-0.129 5.646,-0.387c6.743,-1.517 7.785,-2.255 13.192,-5.307c1.294,-0.902 2.366,-2.032 3.257,-3.315c-0.715,5.02 -2.367,11.627 -11.991,16.524c-5.729,1.746 -11.176,5.834 -8.154,12.348c5.372,10.526 19.301,3.216 24.643,-3.767c0.012,10.351 -9.548,14.434 -18.691,14.756c-4.757,0.521 -9.935,-0.393 -14.668,0.398c-5.875,1.57 -9.53,8.921 -5.676,14.662c12.079,11.006 44.143,3.497 49.989,-11.827c28.659,29.901 88.02,15.455 101.263,-22.455c0.19,-0.545 0.371,-1.094 0.542,-1.649c0.012,-0.035 2.238,-25.135 -3.819,-35.854c2.355,-0.317 4.662,-1.47 6.502,-3.269c-0.076,13.484 3.889,27.396 15.686,35.263c1.553,1.019 9.32,4.727 12.805,1.98c3.198,-2.068 4.809,-6.315 4.592,-10.052c0.879,0.381 1.793,0.756 2.759,1.142c12.377,4.774 35.269,6.702 42.368,-4.182c3.544,-9.395 -3.479,-14.802 -12.933,-19.394Zm-14.838,-62.641c1.605,13.214 -6.291,24.455 -7.023,37.523c-0.914,9.935 4.182,15.423 14.047,13.08c5.002,-1.247 8.247,5.225 4.873,8.67c-4.252,3.473 -10.795,3.491 -15.88,3.075c-18.726,-4.528 -14.743,-28.269 -12.102,-42.802c3.263,-6.63 -0.451,-15.417 -4.932,-22.979c11.341,3.022 18.721,-8.464 10.831,-19.664c-7.088,-9.144 -15.124,-17.151 -24.075,-23.506c-13.589,-9.595 -28.995,-15.312 -46.609,-15.5c0.516,-1.236 0.709,-3.145 0.727,-3.268l-0,0.029c15.569,-1.359 31.197,3.31 44.541,11.264c20.291,11.411 33.833,30.548 35.602,54.078Zm-80.008,-77.772c-0.041,0.065 -0.088,0.135 -0.135,0.199c12.922,-0.995 27.736,0.059 39.298,6.151c4.353,2.706 4.991,9.6 2.613,12.096c-13.016,-6.625 -27.607,-10.11 -42.175,-8.734c-0.527,-2.314 -1.845,-4.463 -3.737,-5.986c1.64,-0.897 3.087,-2.185 4.136,-3.726Zm-128.399,-69.307c0.656,-8.259 1.33,-20.203 9.835,-23.787c5.207,-1.289 10.309,2.741 10.585,8.352c0.416,2.548 -0.615,6.83 -1.102,9.326c-7.667,40.534 3.726,82.861 26.213,116.87c0.369,0.58 -0.316,1.764 -0.837,2.203c-1.518,1.101 -5.788,3.386 -8.225,1.558c-22.376,-33.218 -37.517,-74.268 -36.469,-114.522Zm48.39,109.115c-1.096,-2.085 -2.273,-4.346 -3.491,-6.736c14.134,-0.07 12.962,14.82 0.292,19.717c-5.623,2.659 -14.767,2.396 -17.08,-3.485c-1.066,-2.519 -0.633,-5.952 1.517,-8.47c1.16,1.757 2.331,3.514 3.532,5.242c3.585,5.975 18.99,-0.275 15.23,-6.268Zm-6.906,136.002c-2.964,4.979 -7.451,9.196 -12.975,10.485c-4.68,1.078 -7.837,-2.15 -7.433,-5.143c0.316,-2.167 2.419,-3.544 4.621,-4.311c11.03,-3.69 16.126,-12.729 14.346,-25.006c0.621,-1.681 1.013,-3.45 1.218,-5.184c0.861,1.669 1.798,3.274 2.8,4.791c-3.228,7.627 -4.036,16.203 -2.577,24.368Zm-23.027,35.872c-3.995,-0.31 -10.332,-0.65 -12.254,-4.382c-1.218,-4.457 2.513,-8.13 7.082,-7.597c11.376,0.029 28.087,-1.687 30.594,-15.417c1.722,4.381 4.165,8.47 7.293,12.02c-5.137,12.166 -20.66,15.651 -32.715,15.376Zm130.344,-32.463c-26.155,50.504 -116.859,37.19 -102.86,-28.233c0,-0 0,0.005 0,-0c-11.428,-19.606 -10.532,-49.597 0.838,-68.968c6.39,2.056 13.841,-4.164 11.92,-10.397c6.613,3.058 15.001,2.941 21.995,2.027c33.886,-6.625 49.421,16.764 57.083,46.345c1.294,4.663 1.499,9.63 4.141,13.859c1.335,2.413 3.163,3.913 5.172,4.633c7.545,12.067 8.019,28.392 1.711,40.734Zm-85.972,-122.81c8.399,4.61 18.375,3.995 27.407,2.87c38.584,-5.465 59.361,27.572 64.457,61.464c0.434,3.063 1.189,7.896 -1.318,10.104c-17.233,13.818 -6.63,-69.36 -68.68,-61.669c-10.79,1.471 -24.807,3.825 -32.562,-5.758c-0.68,-0.919 -2.086,-0.111 -1.605,0.961c1.148,1.945 2.571,3.55 4.235,4.856c2.975,4.768 -2.624,10.807 -7.428,8.839c-4.311,-2.759 -6.718,-10.262 -6.689,-15.622c0.041,-0.744 -1.09,-0.931 -1.283,-0.205c-1.265,4.633 -0.562,11.1 2.279,15.476c-7.24,12.242 -9.624,29.258 -7.539,45.173c-1.781,1.623 -4.364,2.589 -6.736,1.371c-6.11,-2.888 -3.784,-18.697 -3.942,-24.678c0.515,-12.623 4.621,-24.684 11.732,-35.14c0.604,-0.954 -0.779,-1.845 -1.423,-0.978c-3.731,5.208 -7.082,10.802 -9.401,16.888c-4.124,10.912 -7.369,32.867 -3.386,43.809c2.513,5.072 9.185,6.882 14.064,4.328c-0,-0.006 -0.029,0.018 -0,0c0.562,2.8 1.617,6.514 2.466,9.156c0.088,0.281 -0,-0 -0,-0c0.668,7.134 -1.248,15.124 -7.673,18.592c-3.866,2.226 -8.441,3.532 -12.916,3.678c-4.798,0.235 -12.196,-1.78 -10.421,-7.65c1.095,-4.774 5.383,-4.024 9.63,-4.246c17.227,-3.128 2.612,-27.15 -1.576,-36.142c-8.394,-17.977 -0.966,-40.294 12.342,-53.972c0.363,-0.357 0.375,-0.949 0.023,-1.324c-0.357,-0.38 -0.96,-0.398 -1.341,-0.041c-12.436,12.085 -20.379,30.735 -16.964,48.097c-1.675,-0.258 -4.287,-0.908 -5.98,-4.657c-6.508,-12.992 2.413,-39.169 14.568,-46.333c0.878,-0.17 0.556,-1.5 -0.287,-1.277c-3.292,1.031 -5.202,3.403 -7.27,5.799c-3.637,0.908 -7.866,1.148 -10.045,-2.624c-4.253,-10.368 12.465,-17.204 20.935,-16.038c0.398,0.035 0.779,-0.229 0.878,-0.633c0.112,-0.445 -0.164,-0.896 -0.609,-1.008c-3.673,-0.861 -7.533,-0.738 -11.194,0.164c-8.687,-6.138 4.563,-11.598 11.223,-11.838c0.287,0.51 4.599,8.072 7.381,12.407c-2.554,3.93 -4.194,8.095 -2.478,11.996c2.859,8.365 13.303,9.343 21.011,5.805c17.819,-7.123 15.921,-28.942 -3.731,-27.144c-1.798,-3.603 -3.649,-7.422 -5.459,-11.329c1.359,-4.639 7.134,-7.263 11.803,-3.919c-1.535,3.931 -2.208,8.213 -1.927,12.249c0.07,1.136 1.833,1.13 1.903,-0c0.826,-9.525 6.543,-20.953 16.853,-22.376c4.147,-1.037 8.476,3.924 7.673,8.54c-4.37,5.541 -8.681,11.118 -13.654,15.939c-1.663,6.531 12.969,-10.509 13.765,-11.528c10.989,-13.057 23.976,-27.039 41.876,-28.656c2.373,-0.029 5.126,-0.802 7.252,0.498c3.239,2.256 3.415,7.937 0.234,10.45c-0.158,0.129 -0.322,0.246 -0.497,0.358c-2.513,1.634 -5.553,1.505 -8.605,2.079c-11.37,1.869 -22.236,7.281 -30.36,15.423c-4.768,3.772 -9.642,7.31 -13.9,11.551c-0.621,0.674 0.257,1.763 1.048,1.318l0.539,-0.281c13.478,-10.052 28.275,-21.163 45.391,-23.055c5.488,-0.539 8.341,6.472 3.948,9.794c-8.863,4.639 -22.089,8.282 -32.44,12.558c-0.421,0.164 -0.685,0.615 -0.591,1.078c0.105,0.515 0.609,0.849 1.124,0.744c2.929,-0.568 5.823,-1.265 8.722,-1.939c7.726,-2.595 22.622,-3.925 28.322,-10.667c27.806,-0.041 51.482,18.171 67.462,39.697l-0,0.012c3.93,6.66 -0.41,12.881 -7.726,8.611c-3.421,-1.857 -20.625,-22.581 -35.427,-29.558c-0.018,-0.006 0.017,0.006 -0,0c-0.299,-0.17 0.293,0.17 -0,0c-3.052,-1.786 -11.299,-4.979 -11.44,-5.02c-14.609,-4.276 -23.876,-3.848 -32.018,-1.898c-3.473,-1.066 -7.65,1.266 -11.112,2.109c-8.194,2.865 -20.115,7.398 -28.385,10.392c-4.464,4.305 27.46,-7.123 29.358,-7.123c1.183,-0.311 4.293,-1.137 5.436,-1.412c7.234,-2.513 9.817,6.268 4.41,9.478c-0.638,-0 -1.271,0.005 -1.909,0.029c-11.264,0.884 -21.984,4.797 -33.172,5.319c-0.48,0.029 -0.872,0.415 -0.896,0.902c-0.023,0.527 0.387,0.972 0.908,0.995c24.286,-0.146 36.212,-9.296 60.034,2.959c18.212,9.905 24.052,31.314 36.236,46.948c3.116,4.124 7.907,7.275 9.383,12.459c0.844,2.396 0.973,4.821 -1.482,6.408c-4.803,2.871 -10.707,-1.03 -15.311,-5.137c-2.396,-11.902 -7.217,-23.313 -13.918,-33.417c-13.976,-24.063 -40.013,-29.833 -65.517,-24.239c-5.805,0.439 -11.803,0.135 -17.052,-2.279c-1.411,-0.644 -2.208,1.459 -1.036,2.074l-0,0.006Zm47.774,-24.444c19.108,-1.874 38.133,6.982 51.893,19.799c5.916,5.629 36.428,42.948 18.996,45.742c-4.235,-0.076 -5.905,-4.985 -7.609,-8.693c-11.551,-22.558 -36.042,-42.696 -62.091,-45.168c0.293,-0.381 0.615,-0.949 0.826,-1.37c1.98,-3.872 0.756,-7.873 -2.015,-10.31Zm71.849,136.447c-16.208,-2.419 -20.478,-22.868 -21.837,-36.51c1.506,-2.806 1.553,-6.321 0.984,-9.531c2.677,2.296 5.917,3.907 9.22,4.317c-0.697,10.667 2.15,23.653 10.515,30.682c1.722,1.324 3.532,2.455 5.558,3.521c-0.099,3.11 -0.474,8.036 -4.44,7.521Zm36.136,-5.705c-0,-0 0.023,0.011 0.053,0.023c-28.667,0.557 -43.792,-9.612 -45.25,-35.966l-0.047,0c2.073,-0.152 4.124,-0.825 6.033,-2.155c6.883,-4.885 4.616,-13.326 0.223,-19.16c-2.291,-3.076 -5.477,-5.26 -7.937,-8.201c-12.038,-13.812 -14.41,-25.527 -25.709,-35.069c10.21,7.415 18.885,17.022 24.168,28.391c0.902,2.074 2.003,4.932 3.345,6.766c3.643,5.77 8.833,7.275 13.115,5.512c-5.922,16.495 -1.283,39.07 16.987,42.561c4.323,0.387 10.309,0.557 14.954,-1.511c4.089,0.047 7.674,3.327 11.089,6.285c1.353,1.131 1.675,1.629 2.302,3.052c2.747,7.662 -7.797,8.944 -13.326,9.472Z" style="fill:#482315;fill-rule:nonzero;"/><path d="M825.987,32.95c0.656,-8.259 1.33,-20.203 9.835,-23.787c5.207,-1.289 10.309,2.741 10.585,8.352c0.416,2.548 -0.615,6.83 -1.102,9.326c-7.667,40.534 3.726,82.861 26.213,116.87c0.369,0.58 -0.316,1.764 -0.837,2.203c-1.518,1.101 -5.788,3.386 -8.225,1.558c-22.376,-33.218 -37.517,-74.268 -36.469,-114.522Z" style="fill:#c79270;"/><path d="M874.377,142.065c-1.096,-2.085 -2.273,-4.346 -3.491,-6.736c14.134,-0.07 12.962,14.82 0.292,19.717c-5.623,2.659 -14.767,2.396 -17.08,-3.485c-1.066,-2.519 -0.633,-5.952 1.517,-8.47c1.16,1.757 2.331,3.514 3.532,5.242c3.585,5.975 18.99,-0.275 15.23,-6.268Z" style="fill:#e76738;"/><path d="M860.998,230.755c0.562,2.8 1.617,6.514 2.466,9.156c0.668,7.134 -1.248,15.124 -7.673,18.592c-3.866,2.226 -8.441,3.532 -12.916,3.678c-4.798,0.235 -12.196,-1.78 -10.421,-7.65c1.095,-4.774 5.383,-4.024 9.63,-4.246c17.227,-3.128 2.612,-27.15 -1.576,-36.142c-8.394,-17.977 -0.966,-40.294 12.342,-53.972c0.363,-0.357 0.375,-0.949 0.023,-1.324c-0.357,-0.38 -0.96,-0.398 -1.341,-0.041c-12.436,12.085 -20.379,30.735 -16.964,48.097c-1.675,-0.258 -4.287,-0.908 -5.98,-4.657c-6.508,-12.992 2.413,-39.169 14.568,-46.333c0.878,-0.17 0.556,-1.5 -0.287,-1.277c-3.292,1.031 -5.202,3.403 -7.27,5.799c-3.637,0.908 -7.866,1.148 -10.045,-2.624c-4.253,-10.368 12.465,-17.204 20.935,-16.038c0.398,0.035 0.779,-0.229 0.878,-0.633c0.112,-0.445 -0.164,-0.896 -0.609,-1.008c-3.673,-0.861 -7.533,-0.738 -11.194,0.164c-8.687,-6.138 4.563,-11.598 11.223,-11.838c0.287,0.51 4.599,8.072 7.381,12.407c-2.554,3.93 -4.194,8.095 -2.478,11.996c2.859,8.365 13.303,9.343 21.011,5.805c17.819,-7.123 15.921,-28.942 -3.731,-27.144c-1.798,-3.603 -3.649,-7.422 -5.459,-11.329c1.359,-4.639 7.134,-7.263 11.803,-3.919c-1.535,3.931 -2.208,8.213 -1.927,12.249c0.07,1.136 1.833,1.13 1.903,-0c0.826,-9.525 6.543,-20.953 16.853,-22.376c4.147,-1.037 8.476,3.924 7.673,8.54c-4.37,5.541 -8.681,11.118 -13.654,15.939c-1.663,6.531 12.969,-10.509 13.765,-11.528c10.989,-13.057 23.976,-27.039 41.876,-28.656c2.373,-0.029 5.126,-0.802 7.252,0.498c3.239,2.256 3.415,7.937 0.234,10.45c-0.158,0.129 -0.322,0.246 -0.497,0.358c-2.513,1.634 -5.553,1.505 -8.605,2.079c-11.37,1.869 -22.236,7.281 -30.36,15.423c-4.768,3.772 -9.642,7.31 -13.9,11.551c-0.621,0.674 0.257,1.763 1.048,1.318l0.539,-0.281c13.478,-10.052 28.275,-21.163 45.391,-23.055c5.488,-0.539 8.341,6.472 3.948,9.794c-8.863,4.639 -22.089,8.282 -32.44,12.558c-0.421,0.164 -0.685,0.615 -0.591,1.078c0.105,0.515 0.609,0.849 1.124,0.744c2.929,-0.568 5.823,-1.265 8.722,-1.939c7.726,-2.595 22.622,-3.925 28.322,-10.667c27.806,-0.041 51.482,18.171 67.462,39.697l-0,0.012c3.93,6.66 -0.41,12.881 -7.726,8.611c-3.421,-1.857 -20.625,-22.581 -35.427,-29.558c-3.052,-1.786 -11.299,-4.979 -11.44,-5.02c-14.609,-4.276 -23.876,-3.848 -32.018,-1.898c-3.473,-1.066 -7.65,1.266 -11.112,2.109c-8.194,2.865 -20.115,7.398 -28.385,10.392c-4.464,4.305 27.46,-7.123 29.358,-7.123c1.183,-0.311 4.293,-1.137 5.436,-1.412c7.234,-2.513 9.817,6.268 4.41,9.478c-0.638,-0 -1.271,0.005 -1.909,0.029c-11.264,0.884 -21.984,4.797 -33.172,5.319c-0.48,0.029 -0.872,0.415 -0.896,0.902c-0.023,0.527 0.387,0.972 0.908,0.995c24.286,-0.146 36.212,-9.296 60.034,2.959c18.212,9.905 24.052,31.314 36.236,46.948c3.116,4.124 7.907,7.275 9.383,12.459c0.844,2.396 0.973,4.821 -1.482,6.408c-4.803,2.871 -10.707,-1.03 -15.311,-5.137c-2.396,-11.902 -7.217,-23.313 -13.918,-33.417c-13.976,-24.063 -40.013,-29.833 -65.517,-24.239c-5.805,0.439 -11.803,0.135 -17.052,-2.279c-1.411,-0.644 -2.208,1.459 -1.036,2.074l-0,0.006c8.399,4.61 18.375,3.995 27.407,2.87c38.584,-5.465 59.361,27.572 64.457,61.464c0.434,3.063 1.189,7.896 -1.318,10.104c-17.233,13.818 -6.63,-69.36 -68.68,-61.669c-10.79,1.471 -24.807,3.825 -32.562,-5.758c-0.68,-0.919 -2.086,-0.111 -1.605,0.961c1.148,1.945 2.571,3.55 4.235,4.856c2.975,4.768 -2.624,10.807 -7.428,8.839c-4.311,-2.759 -6.718,-10.262 -6.689,-15.622c0.041,-0.744 -1.09,-0.931 -1.283,-0.205c-1.265,4.633 -0.562,11.1 2.279,15.476c-7.24,12.242 -9.624,29.258 -7.539,45.173c-1.781,1.623 -4.364,2.589 -6.736,1.371c-6.11,-2.888 -3.784,-18.697 -3.942,-24.678c0.515,-12.623 4.621,-24.684 11.732,-35.14c0.604,-0.954 -0.779,-1.845 -1.423,-0.978c-3.731,5.208 -7.082,10.802 -9.401,16.888c-4.124,10.912 -7.369,32.867 -3.386,43.809c2.511,5.068 9.173,6.879 14.051,4.335c0.001,-0 0.005,-0.002 0.013,-0.007Zm93.388,-128.498c-0.041,0.065 -0.088,0.135 -0.135,0.199c12.922,-0.995 27.736,0.059 39.298,6.151c4.353,2.706 4.991,9.6 2.613,12.096c-13.016,-6.625 -27.607,-10.11 -42.175,-8.734c-0.527,-2.314 -1.845,-4.463 -3.737,-5.986c1.64,-0.897 3.087,-2.185 4.136,-3.726Zm80.008,77.772c1.605,13.214 -6.291,24.455 -7.023,37.523c-0.914,9.935 4.182,15.423 14.047,13.08c5.002,-1.247 8.247,5.225 4.873,8.67c-4.252,3.473 -10.795,3.491 -15.88,3.075c-18.726,-4.528 -14.743,-28.269 -12.102,-42.802c3.263,-6.63 -0.451,-15.417 -4.932,-22.979c11.341,3.022 18.721,-8.464 10.831,-19.664c-7.088,-9.144 -15.124,-17.151 -24.075,-23.506c-13.589,-9.595 -28.995,-15.312 -46.609,-15.5c0.516,-1.236 0.709,-3.145 0.727,-3.268l-0,0.029c15.569,-1.359 31.197,3.31 44.541,11.264c20.291,11.411 33.833,30.548 35.602,54.078Zm-189.95,133.91c-3.995,-0.31 -10.332,-0.65 -12.254,-4.382c-1.218,-4.457 2.513,-8.13 7.082,-7.597c11.376,0.029 28.087,-1.687 30.594,-15.417c1.722,4.381 4.165,8.47 7.293,12.02c-5.137,12.166 -20.66,15.651 -32.715,15.376Zm200.131,-48.975c-0,-0 0.023,0.011 0.053,0.023c-28.667,0.557 -43.792,-9.612 -45.25,-35.966l-0.047,0c2.073,-0.152 4.124,-0.825 6.033,-2.155c6.883,-4.885 4.616,-13.326 0.223,-19.16c-2.291,-3.076 -5.477,-5.26 -7.937,-8.201c-12.038,-13.812 -14.41,-25.527 -25.709,-35.069c10.21,7.415 18.885,17.022 24.168,28.391c0.902,2.074 2.003,4.932 3.345,6.766c3.643,5.77 8.833,7.275 13.115,5.512c-5.922,16.495 -1.283,39.07 16.987,42.561c4.323,0.387 10.309,0.557 14.954,-1.511c4.089,0.047 7.674,3.327 11.089,6.285c1.353,1.131 1.675,1.629 2.302,3.052c2.747,7.662 -7.797,8.944 -13.326,9.472Zm-177.104,13.103c-2.964,4.979 -7.451,9.196 -12.975,10.485c-4.68,1.078 -7.837,-2.15 -7.433,-5.143c0.316,-2.167 2.419,-3.544 4.621,-4.311c11.03,-3.69 16.126,-12.729 14.346,-25.006c0.621,-1.681 1.013,-3.45 1.218,-5.184c0.861,1.669 1.798,3.274 2.8,4.791c-3.228,7.627 -4.036,16.203 -2.577,24.368Zm140.968,-7.398c-16.208,-2.419 -20.478,-22.868 -21.837,-36.51c1.506,-2.806 1.553,-6.321 0.984,-9.531c2.677,2.296 5.917,3.907 9.22,4.317c-0.697,10.667 2.15,23.653 10.515,30.682c1.722,1.324 3.532,2.455 5.558,3.521c-0.099,3.11 -0.474,8.036 -4.44,7.521Zm-71.849,-136.447c19.108,-1.874 38.133,6.982 51.893,19.799c5.916,5.629 36.428,42.948 18.996,45.742c-4.235,-0.076 -5.905,-4.985 -7.609,-8.693c-11.551,-22.558 -36.042,-42.696 -62.091,-45.168c0.293,-0.381 0.615,-0.949 0.826,-1.37c1.98,-3.872 0.756,-7.873 -2.015,-10.31Z" style="fill:#e76738;"/><path d="M867.819,291.988c0.963,-1.564 1.668,-3.367 2.047,-5.445c1.722,4.381 4.165,8.47 7.293,12.02c-0.599,1.418 -1.338,2.717 -2.197,3.907c-2.862,-3.06 -5.282,-6.556 -7.143,-10.482Zm-4.143,-22.199c2.418,-4.251 3.242,-9.571 2.354,-15.697c0.621,-1.681 1.013,-3.45 1.218,-5.184c0.861,1.669 1.798,3.274 2.8,4.791c-3.228,7.627 -4.036,16.203 -2.577,24.368c-0.849,1.426 -1.823,2.79 -2.911,4.04c-0.768,-3.815 -1.086,-7.922 -0.884,-12.318Z" style="fill:#cd4922;"/></g></svg>