<?xml version="1.0" encoding="UTF-8" standalone="no"?><!DOCTYPE svg PUBLIC "-//W3C//DTD SVG 1.1//EN" "http://www.w3.org/Graphics/SVG/1.1/DTD/svg11.dtd"><svg width="100%" height="100%" viewBox="0 0 1845 923" version="1.1" xmlns="http://www.w3.org/2000/svg" xmlns:xlink="http://www.w3.org/1999/xlink" xml:space="preserve" xmlns:serif="http://www.serif.com/" style="fill-rule:evenodd;clip-rule:evenodd;stroke-linejoin:round;stroke-miterlimit:2;"><path d="M899.304,0c0.612,0 1.116,0.48 1.146,1.091c0.031,0.61 -0.423,1.138 -1.032,1.199c-138.867,13.895 -863.812,86.432 -898.156,89.869c-0.323,0.032 -0.644,-0.074 -0.884,-0.291c-0.241,-0.218 -0.378,-0.527 -0.378,-0.851l0,-89.869c0,-0.305 0.121,-0.597 0.336,-0.812c0.215,-0.215 0.507,-0.336 0.812,-0.336l898.156,0Z" style="fill:#f2b587;"/><path d="M945.3,0c-0.612,0 -1.116,0.48 -1.146,1.091c-0.031,0.61 0.423,1.138 1.032,1.199c138.867,13.895 863.812,86.432 898.156,89.869c0.323,0.032 0.644,-0.074 0.884,-0.291c0.241,-0.218 0.378,-0.527 0.378,-0.851l0,-89.869c0,-0.305 -0.121,-0.597 -0.336,-0.812c-0.215,-0.215 -0.507,-0.336 -0.812,-0.336l-898.156,0Z" style="fill:#f2b587;"/><path d="M921.16,11.413c0.059,-0.586 0.552,-1.033 1.142,-1.033c0.59,0 1.083,0.447 1.142,1.033c10.582,105.761 91.143,910.889 91.143,910.889l-184.57,0c0,0 80.561,-805.128 91.143,-910.889Z" style="fill:#f2b587;"/><path d="M910.982,1.851c0.582,-0.095 1.141,0.266 1.294,0.836c0.152,0.569 -0.151,1.162 -0.703,1.37c-99.418,37.595 -856.261,323.793 -856.261,323.793l-47.77,-178.281c0,0 798.544,-130.567 903.44,-147.718Z" style="fill:#f2b587;"/><path d="M913.424,7.263c0.456,-0.373 1.121,-0.34 1.538,0.077c0.417,0.417 0.45,1.082 0.077,1.538c-67.301,82.267 -579.648,708.543 -579.648,708.543l-130.51,-130.51c0,0 626.276,-512.347 708.543,-579.648Z" style="fill:#edb88b;"/><path d="M918.245,10.729c0.209,-0.552 0.801,-0.855 1.371,-0.703c0.569,0.153 0.93,0.712 0.835,1.294c-17.151,104.896 -147.718,903.44 -147.718,903.44l-178.281,-47.77c0,0 286.198,-756.843 323.793,-856.261Z" style="fill:#edb88b;"/><path d="M924.153,11.32c-0.095,-0.582 0.266,-1.141 0.836,-1.294c0.569,-0.152 1.162,0.151 1.37,0.703c37.595,99.418 323.793,856.261 323.793,856.261l-178.281,47.77c0,0 -130.567,-798.544 -147.718,-903.44Z" style="fill:#edb88b;"/><path d="M929.565,8.878c-0.373,-0.456 -0.34,-1.121 0.077,-1.538c0.417,-0.417 1.082,-0.45 1.538,-0.077c82.267,67.301 708.543,579.648 708.543,579.648l-130.51,130.51c0,0 -512.347,-626.276 -579.648,-708.543Z" style="fill:#f2b587;"/><path d="M933.031,4.057c-0.552,-0.208 -0.855,-0.801 -0.703,-1.37c0.153,-0.57 0.712,-0.931 1.294,-0.836c104.896,17.151 903.44,147.718 903.44,147.718l-47.77,178.281c-0,0 -756.843,-286.198 -856.261,-323.793Z" style="fill:#f2b587;"/></svg>