<?xml version="1.0" encoding="UTF-8" standalone="no"?><!DOCTYPE svg PUBLIC "-//W3C//DTD SVG 1.1//EN" "http://www.w3.org/Graphics/SVG/1.1/DTD/svg11.dtd"><svg width="100%" height="100%" viewBox="0 0 1830 1830" version="1.1" xmlns="http://www.w3.org/2000/svg" xmlns:xlink="http://www.w3.org/1999/xlink" xml:space="preserve" xmlns:serif="http://www.serif.com/" style="fill-rule:evenodd;clip-rule:evenodd;stroke-linejoin:round;stroke-miterlimit:2;"><path d="M912.91,903.44c0.095,0.582 -0.267,1.142 -0.836,1.294c-0.57,0.153 -1.162,-0.151 -1.371,-0.702c-37.594,-99.419 -323.792,-856.262 -323.792,-856.262l178.28,-47.77c0,0 130.567,798.544 147.719,903.44Z" style="fill:#f2daae;"/><path d="M918.818,904.032c-0.209,0.551 -0.802,0.855 -1.371,0.702c-0.57,-0.152 -0.931,-0.712 -0.836,-1.294c17.152,-104.896 147.718,-903.44 147.718,-903.44l178.281,47.77c0,0 -286.198,756.843 -323.792,856.262Z" style="fill:#f2daae;"/><path d="M923.638,907.498c-0.456,0.373 -1.121,0.34 -1.538,-0.077c-0.417,-0.417 -0.45,-1.082 -0.077,-1.539c67.302,-82.267 579.648,-708.543 579.648,-708.543l130.511,130.511c-0,-0 -626.276,512.346 -708.544,579.648Z" style="fill:#f2daae;"/><path d="M907.498,905.882c0.373,0.457 0.34,1.122 -0.077,1.539c-0.417,0.417 -1.082,0.45 -1.539,0.077c-82.267,-67.302 -708.543,-579.648 -708.543,-579.648l130.511,-130.511c-0,0 512.346,626.276 579.648,708.543Z" style="fill:#f2daae;"/><path d="M904.032,910.703c0.551,0.209 0.855,0.801 0.702,1.371c-0.152,0.569 -0.712,0.931 -1.294,0.836c-104.896,-17.152 -903.44,-147.719 -903.44,-147.719l47.77,-178.28c0,-0 756.843,286.198 856.262,323.792Z" style="fill:#f2daae;"/><path d="M926.08,912.91c-0.581,0.095 -1.141,-0.267 -1.293,-0.836c-0.153,-0.57 0.151,-1.162 0.702,-1.371c99.419,-37.594 856.262,-323.792 856.262,-323.792l47.77,178.28c-0,0 -798.544,130.567 -903.441,147.719Z" style="fill:#f2daae;"/><path d="M916.611,926.245c-0.095,-0.582 0.266,-1.141 0.836,-1.294c0.569,-0.153 1.162,0.151 1.371,0.703c37.594,99.418 323.792,856.261 323.792,856.261l-178.281,47.77c0,0 -130.566,-798.544 -147.718,-903.44Z" style="fill:#f2daae;"/><path d="M910.703,925.654c0.209,-0.552 0.801,-0.856 1.371,-0.703c0.569,0.153 0.931,0.712 0.836,1.294c-17.152,104.896 -147.719,903.44 -147.719,903.44l-178.28,-47.77c-0,-0 286.198,-756.843 323.792,-856.261Z" style="fill:#f2daae;"/><path d="M905.882,922.188c0.457,-0.374 1.122,-0.341 1.539,0.076c0.417,0.417 0.45,1.082 0.077,1.539c-67.302,82.267 -579.648,708.543 -579.648,708.543l-130.511,-130.511c0,0 626.276,-512.346 708.543,-579.647Z" style="fill:#f2daae;"/><path d="M922.023,923.803c-0.373,-0.457 -0.34,-1.122 0.077,-1.539c0.417,-0.417 1.082,-0.45 1.538,-0.076c82.268,67.301 708.544,579.647 708.544,579.647l-130.511,130.511c0,-0 -512.346,-626.276 -579.648,-708.543Z" style="fill:#f2daae;"/><path d="M925.489,918.982c-0.551,-0.209 -0.855,-0.801 -0.702,-1.371c0.152,-0.569 0.712,-0.931 1.293,-0.835c104.897,17.151 903.441,147.718 903.441,147.718l-47.77,178.28c-0,0 -756.843,-286.197 -856.262,-323.792Z" style="fill:#f2daae;"/><path d="M903.44,916.776c0.582,-0.096 1.142,0.266 1.294,0.835c0.153,0.57 -0.151,1.162 -0.702,1.371c-99.419,37.595 -856.262,323.792 -856.262,323.792l-47.77,-178.28c0,-0 798.544,-130.567 903.44,-147.718Z" style="fill:#f2daae;"/></svg>